HIERARCHY
ROOT SimulationBone
{
	OFFSET 0.000000 0.000000 0.000000
	CHANNELS 6 Xposition Yposition Zposition Zrotation Yrotation Xrotation 
	JOINT Hips
	{
		OFFSET 0.000000 0.000000 0.000000
		CHANNELS 6 Xposition Yposition Zposition Zrotation Yrotation Xrotation 
		JOINT LeftUpLeg
		{
			OFFSET 0.103458 1.857831 10.548505
			CHANNELS 3 Zrotation Yrotation Xrotation
			JOINT LeftLeg
			{
				OFFSET 43.500000 -0.000031 0.000002
				CHANNELS 3 Zrotation Yrotation Xrotation
				JOINT LeftFoot
				{
					OFFSET 42.372200 0.000023 0.000003
					CHANNELS 3 Zrotation Yrotation Xrotation
					JOINT LeftToe
					{
						OFFSET 17.299997 -0.000001 -0.000010
						CHANNELS 3 Zrotation Yrotation Xrotation
						End Site
						{
							OFFSET 0.000000 0.000000 0.000000
						}
					}
				}
			}
		}
		JOINT RightUpLeg
		{
			OFFSET 0.103457 1.857828 -10.548510
			CHANNELS 3 Zrotation Yrotation Xrotation
			JOINT RightLeg
			{
				OFFSET 43.500046 -0.000015 0.000002
				CHANNELS 3 Zrotation Yrotation Xrotation
				JOINT RightFoot
				{
					OFFSET 42.372261 -0.000008 0.000023
					CHANNELS 3 Zrotation Yrotation Xrotation
					JOINT RightToe
					{
						OFFSET 17.299990 -0.000007 -0.000002
						CHANNELS 3 Zrotation Yrotation Xrotation
						End Site
						{
							OFFSET 0.000000 0.000000 0.000000
						}
					}
				}
			}
		}
		JOINT Spine
		{
			OFFSET 6.901967 -2.603726 -0.000001
			CHANNELS 3 Zrotation Yrotation Xrotation
			JOINT Spine1
			{
				OFFSET 12.588100 -0.000009 -0.000003
				CHANNELS 3 Zrotation Yrotation Xrotation
				JOINT Spine2
				{
					OFFSET 12.343202 0.000008 0.000008
					CHANNELS 3 Zrotation Yrotation Xrotation
					JOINT Neck
					{
						OFFSET 25.832897 -0.000015 -0.000004
						CHANNELS 3 Zrotation Yrotation Xrotation
						JOINT Head
						{
							OFFSET 11.766609 0.000013 -0.000006
							CHANNELS 3 Zrotation Yrotation Xrotation
							End Site
							{
								OFFSET 0.000000 0.000000 0.000000
							}
						}
					}
					JOINT LeftShoulder
					{
						OFFSET 19.745911 -1.480373 6.000098
						CHANNELS 3 Zrotation Yrotation Xrotation
						JOINT LeftArm
						{
							OFFSET 11.284123 -0.000007 -0.000032
							CHANNELS 3 Zrotation Yrotation Xrotation
							JOINT LeftForeArm
							{
								OFFSET 33.000050 0.000005 0.000031
								CHANNELS 3 Zrotation Yrotation Xrotation
								JOINT LeftHand
								{
									OFFSET 25.200008 0.000017 0.000013
									CHANNELS 3 Zrotation Yrotation Xrotation
									End Site
									{
										OFFSET 0.000000 0.000000 0.000000
									}
								}
							}
						}
					}
					JOINT RightShoulder
					{
						OFFSET 19.746092 -1.480379 -6.000077
						CHANNELS 3 Zrotation Yrotation Xrotation
						JOINT RightArm
						{
							OFFSET 11.284136 -0.000017 -0.000017
							CHANNELS 3 Zrotation Yrotation Xrotation
							JOINT RightForeArm
							{
								OFFSET 33.000099 0.000019 0.000015
								CHANNELS 3 Zrotation Yrotation Xrotation
								JOINT RightHand
								{
									OFFSET 25.199780 0.000140 0.000408
									CHANNELS 3 Zrotation Yrotation Xrotation
									End Site
									{
										OFFSET 0.000000 0.000000 0.000000
									}
								}
							}
						}
					}
				}
			}
		}
	}
}
MOTION
Frames: 15
Frame Time: 0.016667
-263.200136 0.000000 446.970950 0.000000 -83.010622 0.000000 1.223268 90.743210 -0.825421 95.484825 -2.001193 -177.142633 -176.897200 5.948693 -173.655511 -21.260690 -3.728417 0.598818 82.252668 1.563239 8.172881 21.454551 0.003102 0.000001 152.972099 6.297894 -175.942504 -48.001189 0.634273 7.913846 70.399920 -4.727223 3.159058 21.454555 -0.003114 -0.000016 7.870614 -0.214706 -0.629825 5.730609 -0.398176 -1.269461 5.412598 -0.405713 -1.267026 18.770494 -1.182838 -9.332082 -6.203008 8.839860 -12.099879 176.607313 -78.955779 1.906189 -55.168641 53.724845 0.094381 -59.120962 -16.231805 2.149627 2.170937 -5.592803 27.251827 -161.678117 70.046237 20.248059 11.264240 -54.444597 -49.677149 -27.209379 16.388708 -1.292879 12.425009 -6.900836 -18.490193 
-263.260716 0.000000 449.266498 0.000000 -81.584868 0.000000 1.000751 90.632921 -0.826472 95.208409 -1.955074 -177.785758 -175.126533 5.454464 -172.695547 -19.741639 -4.056306 0.675841 82.836069 1.485263 8.217756 21.454558 0.003105 -0.000002 153.013461 6.514160 -176.011998 -41.163411 1.054217 8.022199 68.491135 -5.038548 2.410307 21.454556 -0.003106 -0.000016 7.777496 -0.252230 -0.763020 5.545326 -0.467877 -1.537183 5.227339 -0.477012 -1.534333 18.577401 -0.569148 -9.537458 -6.367849 8.876473 -12.333903 175.039898 -79.269452 3.491899 -57.713510 52.403619 -2.214162 -62.350086 -15.616853 2.224334 0.213461 -6.874209 28.444584 -160.953548 69.441830 21.003546 14.295981 -52.400718 -55.742265 -28.477929 16.164799 -1.303952 10.414360 -5.876902 -16.580710 
-263.307079 0.000000 451.526001 0.000000 -80.399256 0.000000 0.868823 90.427437 -0.825934 95.035446 -1.902386 -178.360461 -173.283279 4.947800 -171.421943 -18.346440 -4.481328 0.441268 83.601166 1.604124 8.237267 21.454557 0.003102 -0.000002 153.657918 6.526195 -176.334775 -33.663898 1.665595 8.516416 67.880577 -5.593801 1.951359 21.454558 -0.003105 -0.000016 7.708822 -0.271485 -0.886063 5.408757 -0.501567 -1.783771 5.090811 -0.512192 -1.780709 18.386574 -0.316165 -9.711735 -6.559004 9.050264 -12.575216 174.183278 -79.518245 4.355827 -60.041814 51.128166 -4.726631 -65.510993 -14.854118 2.300235 -0.420461 -7.220675 29.083781 -160.167703 69.325495 21.816434 17.188617 -51.005765 -61.027028 -29.569561 16.174513 -1.322726 8.892228 -4.649802 -14.091597 
-263.339744 0.000000 453.750389 0.000000 -79.437088 0.000000 0.803909 90.144335 -0.823172 94.951300 -1.872650 -178.891642 -171.432549 4.458945 -170.238011 -17.162889 -4.876182 0.121986 84.459479 1.769426 8.249194 21.454552 0.003097 -0.000000 154.593601 6.415946 -176.740144 -26.164958 2.311547 9.460378 67.790197 -6.250184 2.134871 21.454558 -0.003107 -0.000017 7.662525 -0.287765 -0.993131 5.316891 -0.529929 -1.998356 4.998990 -0.541859 -1.995111 18.195940 -0.285473 -9.871660 -6.746858 9.279028 -12.817805 173.772620 -79.731232 4.767275 -62.107703 49.891073 -7.252861 -68.483706 -14.002140 2.362822 -0.442850 -7.094072 29.049564 -159.301013 69.505716 22.708199 19.955428 -50.099380 -65.363627 -30.437123 16.279832 -1.345501 7.806166 -3.432965 -11.501814 
-263.359232 0.000000 455.940594 0.000000 -78.682699 0.000000 0.782844 89.801193 -0.821058 94.943004 -1.897778 -179.403339 -169.631300 4.046405 -169.542944 -16.283668 -5.125189 -0.048509 85.322305 1.830448 8.267065 21.454550 0.003095 0.000001 155.507998 6.258893 -177.057040 -19.357987 2.841759 10.871752 67.429778 -6.877393 3.324984 21.454558 -0.003108 -0.000017 7.636595 -0.316377 -1.078366 5.265958 -0.583709 -2.169930 4.948091 -0.596679 -2.166354 18.002338 -0.338794 -10.034908 -6.900947 9.480853 -13.054813 173.501216 -79.932714 5.037411 -63.878325 48.697834 -9.613396 -71.149841 -13.120840 2.408481 -0.589454 -6.929875 28.253406 -158.358591 69.791075 23.675675 22.511771 -49.554726 -68.491817 -31.031580 16.343061 -1.362491 7.067289 -2.459817 -9.283411 
-263.366066 0.000000 458.097545 0.000000 -78.121716 0.000000 0.789529 89.410104 -0.821558 94.999379 -1.996640 -179.921866 -167.922984 3.774352 -169.552587 -15.785785 -5.180297 0.057516 86.129577 1.704737 8.280346 21.454552 0.003099 0.000001 156.115082 6.079186 -177.042042 -13.926027 3.140271 12.627147 66.359958 -7.373589 5.510464 21.454556 -0.003107 -0.000017 7.627866 -0.368170 -1.136564 5.249848 -0.684773 -2.288573 4.931995 -0.698449 -2.284392 17.805559 -0.365750 -10.208911 -7.000201 9.601112 -13.275737 173.159902 -80.135188 5.378255 -65.330225 47.570022 -11.677953 -73.444845 -12.259591 2.443009 -1.352202 -7.026387 26.755937 -157.383335 70.023669 24.677112 24.744896 -49.286729 -70.199314 -31.315816 16.272138 -1.364293 6.593518 -1.951435 -7.845902 
-263.360765 0.000000 460.222174 0.000000 -77.741166 0.000000 0.834769 88.961227 -0.814394 95.111796 -2.130105 179.514597 -166.323603 3.627505 -169.767070 -15.672265 -5.235884 0.130528 86.936723 1.584951 8.200860 21.454555 0.003100 0.000000 156.236711 5.727007 -176.173514 -10.504705 3.152654 14.166833 65.575040 -7.896971 7.111523 21.454555 -0.003106 -0.000017 7.628403 -0.436088 -1.165179 5.252522 -0.819227 -2.348869 4.934673 -0.833258 -2.343883 17.619892 -0.366925 -10.357031 -7.064222 9.693307 -13.458448 173.047623 -80.311147 5.487286 -66.437193 46.559028 -13.480794 -75.512672 -11.423967 2.473033 -2.257139 -7.085371 25.212216 -156.466314 70.178838 25.619316 26.669656 -49.260802 -70.689054 -31.304665 16.156654 -1.356136 6.445568 -2.065848 -7.353852 
-263.343851 0.000000 462.315411 0.000000 -77.529473 0.000000 0.927594 88.454058 -0.790098 95.265690 -2.242974 178.883148 -164.857690 3.539739 -169.796590 -15.940716 -5.439325 -0.069763 87.762459 1.625771 7.975248 21.454554 0.003093 -0.000001 155.820065 5.098244 -174.013639 -9.455293 2.937372 14.907306 65.999110 -8.578339 6.756870 21.454555 -0.003106 -0.000018 7.627373 -0.506536 -1.164792 5.251953 -0.960079 -2.351311 4.934105 -0.974130 -2.345474 17.480189 -0.371270 -10.445871 -7.122332 9.818463 -13.588466 173.504643 -80.431197 5.020428 -67.164269 45.745201 -15.103957 -77.519388 -10.600945 2.500499 -2.731987 -6.738256 24.286252 -155.682176 70.270583 26.425406 28.314670 -49.434041 -70.295698 -31.026852 16.119049 -1.347439 6.711550 -2.853570 -7.795271 
-263.315844 0.000000 464.378187 0.000000 -77.476408 0.000000 1.044029 87.947372 -0.755221 95.425023 -2.272998 178.230924 -163.589683 3.452393 -170.395516 -16.644608 -5.516967 -0.062511 88.363256 1.543935 7.743054 21.454553 0.003086 -0.000002 155.253096 4.390493 -170.743582 -10.006270 2.625447 14.582167 66.760577 -8.782416 5.551113 21.454557 -0.003106 -0.000018 7.607269 -0.557593 -1.145840 5.212674 -1.063404 -2.315585 4.894812 -1.077242 -2.309120 17.488416 -0.411377 -10.499887 -7.200192 9.960175 -13.692052 174.421105 -80.495985 4.089190 -67.452993 45.302431 -16.661548 -79.518059 -9.746698 2.527304 -2.698705 -6.106505 24.119633 -154.998616 70.328488 27.128331 29.714119 -49.750735 -69.535572 -30.513371 16.232098 -1.344922 7.366621 -4.022850 -8.670677 
-263.277266 0.000000 466.411433 0.000000 -77.572985 0.000000 1.167924 87.496844 -0.717167 95.565678 -2.179708 177.634575 -162.552602 3.346363 -172.203270 -17.806273 -5.212087 0.576148 88.486075 1.086397 7.641319 21.454553 0.003088 -0.000002 154.931617 3.792751 -166.890950 -11.293912 2.296292 13.203060 66.800916 -8.084431 4.649858 21.454556 -0.003106 -0.000017 7.556868 -0.571232 -1.122495 5.111974 -1.092730 -2.269065 4.794078 -1.106271 -2.262423 17.707822 -0.497659 -10.558063 -7.308022 10.066462 -13.798142 175.612323 -80.501391 2.880785 -67.265059 45.347054 -18.179297 -81.492137 -8.837026 2.550808 -2.292491 -5.446659 24.683967 -154.381080 70.354575 27.763828 30.869881 -50.125201 -68.820224 -29.818558 16.519379 -1.350319 8.315042 -5.203346 -9.484466 
-263.228637 0.000000 468.416078 0.000000 -77.811352 0.000000 1.346793 87.086456 -0.669367 95.736797 -2.012821 177.214948 -161.627971 3.211506 -174.249792 -19.266540 -4.807758 1.350091 88.094140 0.579953 7.629684 21.454555 0.003094 -0.000000 154.779409 3.299802 -163.736601 -13.247889 2.028733 11.582042 66.320637 -7.550215 2.780153 21.454557 -0.003108 -0.000015 7.496594 -0.553399 -1.114044 4.990999 -1.058656 -2.250838 4.673085 -1.072070 -2.244404 17.979565 -0.547903 -10.658334 -7.397855 10.020934 -13.905385 177.095399 -80.393061 1.378703 -66.638472 45.665544 -19.282279 -83.260722 -7.958296 2.564860 -2.061664 -4.985840 25.762832 -153.916085 70.229682 28.245875 31.636667 -50.417590 -67.956897 -29.090301 16.856833 -1.357098 9.353131 -6.039308 -10.243230 
-263.170479 0.000000 470.393053 0.000000 -78.184660 0.000000 1.619432 86.698293 -0.603696 95.991284 -1.804433 177.061918 -160.723753 2.995759 -175.606340 -20.910297 -4.597064 1.775176 87.191030 0.342742 7.607866 21.454555 0.003097 0.000002 154.655889 2.845422 -162.446965 -15.897396 1.926933 10.582988 65.805900 -8.226273 -1.137621 21.454558 -0.003111 -0.000015 7.449514 -0.506922 -1.132902 4.896015 -0.965881 -2.286162 4.578128 -0.979512 -2.280291 18.154126 -0.531294 -10.825043 -7.439211 9.774847 -14.019862 178.814789 -80.118527 -0.360642 -65.600302 46.029292 -19.609000 -84.652071 -7.213155 2.572949 -2.449909 -4.826855 27.104203 -153.633914 69.879022 28.545435 31.882534 -50.544285 -66.709520 -28.454980 17.103360 -1.360717 10.259232 -6.263143 -10.978492 
-263.103312 0.000000 472.343290 0.000000 -78.686941 0.000000 1.925625 86.378540 -0.515361 96.316911 -1.424905 177.096255 -159.988247 2.594402 -177.117392 -22.918978 -4.258832 2.259755 85.725765 0.068090 7.419567 21.454555 0.003097 0.000004 154.587357 2.242400 -162.982602 -18.821116 2.082585 10.495679 65.460416 -9.568038 -4.998155 21.454560 -0.003112 -0.000016 7.417708 -0.397978 -1.158941 4.830294 -0.747661 -2.333421 4.512451 -0.761591 -2.328867 18.342999 -0.714513 -11.034037 -7.531568 9.613480 -14.208823 -179.601969 -79.691445 -1.960825 -64.147326 46.513690 -19.316238 -85.690016 -6.657314 2.580378 -3.020851 -4.691138 28.533541 -153.198506 69.522129 29.003467 31.690294 -50.688342 -65.291511 -27.854813 17.197819 -1.355877 10.857616 -5.949234 -11.381014 
-263.027657 0.000000 474.267719 0.000000 -79.312983 0.000000 2.195833 86.161798 -0.397931 96.682970 -0.775020 177.222090 -159.630152 1.942775 -179.655698 -25.572937 -3.457382 3.206307 83.675971 -0.568155 6.967708 21.454555 0.003096 0.000004 154.593124 1.362389 -164.840128 -21.661262 2.540763 11.290508 65.362016 -10.728369 -6.607570 21.454558 -0.003107 -0.000017 7.398120 -0.204631 -1.170514 4.787142 -0.361109 -2.348442 4.469320 -0.375138 -2.346217 18.660859 -1.271434 -11.258700 -7.760591 9.777443 -14.520843 -178.396273 -79.173364 -3.178148 -62.322566 47.221798 -18.633454 -86.397257 -6.339172 2.588962 -3.270250 -4.345675 29.887179 -152.365198 69.340092 29.867624 31.150137 -51.012412 -63.945224 -27.252506 17.151429 -1.341947 11.055046 -5.275694 -11.210464 
-262.944035 0.000000 476.167270 0.000000 -80.058206 0.000000 2.421306 85.972229 -0.241637 97.039601 -0.040407 177.437693 -159.925929 1.094415 177.566067 -29.319952 -2.554707 4.221326 81.179768 -1.298976 6.380437 21.454557 0.003094 0.000002 154.472405 0.419298 -166.850019 -24.810264 3.069908 12.262114 66.042013 -11.381641 -6.634616 21.454557 -0.003103 -0.000018 7.388047 0.010722 -1.172375 4.762574 0.069228 -2.343302 4.444747 0.055225 -2.343672 18.965284 -1.710322 -11.499079 -8.020119 9.998448 -14.865845 -177.237412 -78.727739 -4.350786 -60.405816 48.059532 -17.600807 -86.599722 -6.324111 2.597105 -3.357900 -4.014902 30.974699 -151.611292 69.082217 30.652412 30.215964 -51.325954 -62.616338 -26.876571 17.185482 -1.337698 10.999222 -4.470905 -10.797972 
